<svg width="124" height="97" viewBox="0 0 124 97" fill="none" xmlns="http://www.w3.org/2000/svg">
<path d="M93.602 83.2H95.702V79.6H100.302V82.94L99.242 84H89.002V77.06L90.262 75.8H95.702V69.2H93.602V72.8H89.002V70.26L90.862 68.4H98.442L100.302 70.26V74.94L98.642 76.6H93.602V83.2ZM101.203 86L110.403 66.8L111.303 67.2L102.103 86.4L101.203 86ZM116.297 83.2H118.397V79.6H122.997V82.94L121.937 84H111.697V77.06L112.957 75.8H118.397V69.2H116.297V72.8H111.697V70.26L113.557 68.4H121.137L122.997 70.26V74.94L121.337 76.6H116.297V83.2Z" fill="#F5F5F5"/>
<path d="M1.55125 73.88H0.83125V70.2H11.7113V73.88H10.9913V70.84H8.11125V82.36H9.39125V83H3.15125V82.36H4.43125V70.84H1.55125V73.88ZM14.9636 83L13.3156 81.352V71.848L14.9636 70.2H22.1476L23.7956 71.848V81.352L22.1476 83H14.9636ZM16.9956 70.84V82.36H20.1156V70.84H16.9956ZM36.8018 71.688V75.912L35.1538 77.56H30.3538V82.36H31.6338V83H25.3938V82.36H26.6738V70.84H25.3938V70.2H35.3138L36.8018 71.688ZM30.3538 76.92H33.1218V70.84H30.3538V76.92ZM44.1694 83H37.9294V82.36H39.2094V70.84H37.9294V70.2H48.0574V73.88H47.3374V70.84H42.8894V76.44H46.6974V77.08H42.8894V82.36H44.1694V83ZM54.935 70.2V70.84H53.655V82.36H54.935V83H48.695V82.36H49.975V70.84H48.695V70.2H54.935ZM65.41 82.36V79.32H66.13V83H55.57V82.36H56.85V70.84H55.57V70.2H61.81V70.84H60.53V82.36H65.41ZM76.7694 82.36V79.32H77.4894V83H66.9294V82.36H68.2094V70.84H66.9294V70.2H73.1694V70.84H71.8894V82.36H76.7694Z" fill="#F5F5F5"/>
<rect x="38.5" y="0.5" width="64" height="62" rx="31" fill="#08192B"/>
<rect x="38.5" y="0.5" width="64" height="62" rx="31" fill="#BFA984"/>
<rect x="38.5" y="0.5" width="64" height="62" rx="31" stroke="#08192B"/>
<ellipse cx="70" cy="31.5" rx="17" ry="16.5" fill="#F0CA7C"/>
<path d="M77.8527 41.8299L77.9045 22.4926C77.9053 22.1721 77.7788 21.8643 77.5528 21.6371C77.3267 21.4098 77.0196 21.2817 76.6991 21.2808L73.0734 21.2711L73.0798 18.8539L68.2455 18.841L68.2391 21.2582L64.6133 21.2485C64.2928 21.2476 63.985 21.3741 63.7578 21.6002C63.5305 21.8262 63.4024 22.1333 63.4015 22.4538L63.3497 41.7911C63.3489 42.1116 63.4754 42.4194 63.7014 42.6466C63.9275 42.8739 64.2346 43.002 64.5551 43.0029L76.6409 43.0352C76.9614 43.0361 77.2692 42.9096 77.4964 42.6835C77.7237 42.4575 77.8518 42.1504 77.8527 41.8299ZM65.7701 40.589L65.8154 23.6689L75.4841 23.6947L75.4388 40.6148L65.7701 40.589Z" fill="#A98335"/>
<path d="M74.2625 28.5258L74.269 26.1086L67.0175 26.0892L67.0111 28.5064L74.2625 28.5258Z" fill="#A98335"/>
<path d="M74.2496 33.3601L74.2561 30.943L67.0046 30.9236L66.9981 33.3407L74.2496 33.3601Z" fill="#A98335"/>
<path d="M74.2367 38.1944L74.2431 35.7773L66.9917 35.7579L66.9852 38.175L74.2367 38.1944Z" fill="#A98335"/>
</svg>
